<svg xmlns="http://www.w3.org/2000/svg" xml:space="preserve" id="strawberry" x="0" y="0" enable-background="new 0 0 70 70" version="1.1" viewBox="0 0 70 70">
  <g id="_x34_7">
    <path fill="#f34b58" d="M56.216217,55.6846008c8.839325-10.4537163-2.6848373-25.4114933-6.8100929-30.1507454
			c-4.0201492-4.8284798-16.94907-18.5937042-28.7037621-11.5644245
			C9.7409983,20.5215931,3.2156079,42.3330765,3.0014718,55.4628448
			c-0.0895295,5.4893494,3.9155385,10.1937714,9.3554068,10.9890137
			C25.3682919,68.3539886,47.9760857,65.4331741,56.216217,55.6846008z"></path>
    <path fill="#fff" d="M13.6254559,28.013031c1.3632832-2.5785027,2.9644852-4.9501801,4.6763725-7.2980976
			c-1.2359829,0.7769451-2.309392,1.7904873-3.2755222,2.9010544c-0.9810972,1.1165619-1.8189135,2.3740749-2.5550709,3.7066517
			c-0.7305336,1.3502274-1.3288975,2.8010521-1.7309561,4.3318405c-0.4480429,1.5270729-0.6164722,3.1649094-0.5990572,4.7933197
			c0.5336504-1.5200615,0.9685087-3.0006256,1.5771017-4.4005089C12.2950468,30.6544514,12.9089499,29.298851,13.6254559,28.013031z
			"></path>
    <path fill="#e11226" d="M3.0014718,55.4628448c-0.0895295,5.4893494,3.9155385,10.1937714,9.3554068,10.9890137
				c13.0114136,1.9021301,35.6192093-1.0186844,43.8593369-10.7672577c4.630722-5.4765244,3.671627-12.1885185,1.1165009-18.0205002
				c-4.5359192,5.6509056-19.9844055,20.3783417-54.1126175,13.9690895
				C3.0948193,52.9707184,3.0212007,54.2538528,3.0014718,55.4628448z"></path>
    <path fill="#febc1f" d="M15.4472513 58.1168594c.9646425-1.0006828.2831421-1.9467354.0267906-2.2369576-.2455883-.2993622-1.0709438-1.123291-2.2152386-.3336296-1.0670109.7361565-2.0631905 2.5845528-2.3460751 3.6225853-.118269.4339867.1285324.7238846.5765028.6771698C12.5607138 59.7342949 14.5479298 59.049984 15.4472513 58.1168594zM28.2073631 59.9083595c.9646435-1.0006828.2831421-1.9467316.0267906-2.2369576-.2455883-.2993622-1.0709438-1.1232872-2.2152386-.3336258-1.0670109.7361526-2.0631905 2.5845528-2.3460751 3.6225853-.118269.4339867.1285324.7238808.5765018.6771698C25.3208256 61.525795 27.3080406 60.8414841 28.2073631 59.9083595zM42.1135101 57.4469528c.9646416-1.0006866.2831421-1.9467354.0267906-2.2369614-.2455902-.2993622-1.0709457-1.1232872-2.2152405-.3336258-1.067009.7361526-2.0631905 2.5845528-2.3460732 3.6225853-.1182709.4339867.1285324.7238808.5764999.6771698C39.2269707 59.0643883 41.2141876 58.3800774 42.1135101 57.4469528zM54.6469498 54.4471779c.9646416-1.0006866.2831421-1.9467354.0267906-2.2369614-.2455902-.2993622-1.0709457-1.1232872-2.2152405-.3336258-1.067009.7361526-2.0631905 2.5845528-2.3460732 3.6225853-.1182709.4339867.1285324.7238846.5764999.6771698C51.7604103 56.0646133 53.7476273 55.3803024 54.6469498 54.4471779z"></path>
    <path fill="#ffd06c" d="M51.5493927 41.7318039c.9646454-1.0006866.2831421-1.9467354.0267906-2.2369614-.2455864-.2993622-1.0709419-1.1232872-2.2152367-.3336258-1.0670128.7361526-2.0631905 2.5845528-2.346077 3.6225853-.1182671.4339867.1285324.7238846.5765038.6771698C48.6628571 43.3492393 50.6500702 42.6649284 51.5493927 41.7318039zM38.9357834 46.9429092c.9646416-1.0006828.2831383-1.9467316.0267868-2.2369576-.2455864-.2993622-1.0709419-1.123291-2.2152367-.3336258-1.0670128.7361526-2.0631905 2.584549-2.3460732 3.6225853-.1182709.4339828.1285286.7238808.5764999.677166C36.0492439 48.5603447 38.0364609 47.8760338 38.9357834 46.9429092zM26.1461143 44.8811188c.9646416-1.0006828.2831421-1.9467354.0267906-2.2369576-.2455883-.2993622-1.0709438-1.123291-2.2152386-.3336258-1.0670109.7361526-2.0631905 2.584549-2.3460751 3.6225853-.1182709.4339828.1285324.7238808.5765018.677166C23.2595768 46.4985542 25.2467918 45.8142433 26.1461143 44.8811188zM33.719986 30.5304279c.9646454-1.0006828.2831421-1.9467354.0267906-2.2369595-.2455864-.2993603-1.0709419-1.1232891-2.2152367-.3336258-1.0670128.7361546-2.0631924 2.5845509-2.3460751 3.6225853-.1182709.4339867.1285324.7238808.5765018.6771698C30.8334503 32.1478615 32.8206635 31.4635525 33.719986 30.5304279zM21.9087677 28.2582226c.9646416-1.0006828.2831402-1.9467335.0267887-2.2369576-.2455864-.2993622-1.0709438-1.1232891-2.2152367-.3336277-1.0670128.7361546-2.0631924 2.5845528-2.3460751 3.6225853-.1182709.4339848.1285324.7238827.5765018.6771698C19.0222301 29.875658 21.0094452 29.1913471 21.9087677 28.2582226zM15.3615751 43.018734c.9646425-1.0006828.2831421-1.9467354.0267906-2.2369576-.2455883-.2993622-1.0709448-1.123291-2.2152386-.3336296-1.0670109.7361565-2.0631905 2.5845528-2.3460751 3.6225853-.1182699.4339867.1285324.7238846.5765028.6771698C12.4750376 44.6361694 14.4622536 43.9518585 15.3615751 43.018734zM30.6619987 19.7554569c.9646435-1.0006847.2831421-1.9467354.0267906-2.2369595-.2455883-.2993622-1.0709438-1.1232891-2.2152386-.3336277-1.0670109.7361546-2.0631905 2.5845528-2.3460751 3.6225853-.118269.4339867.1285324.7238846.5765018.6771698C27.7754612 21.3728924 29.7626762 20.6885815 30.6619987 19.7554569z"></path>
    <g>
      <path fill="#78e75a" d="M66.8962021,39.9504509c-0.8775864-1.5812111-2.4682617-4.5095291-3.110527-6.0916748
				c-1.6693459-4.1123562-4.6267052-7.3107681-11.9650345-9.3467884c-0.4854469-0.1346951-0.9776306,0.1969795-1.0349426,0.6968288
				c-0.4299011,3.7476425-0.8948746,17.4094734,15.4598999,15.9589424
				C66.8394165,41.1151009,67.1852036,40.4711304,66.8962021,39.9504509z"></path>
      <path fill="#72d561" d="M50.7856979,25.2087917c-0.4298897,3.7476826-0.8948746,17.4094906,15.4598923,15.9589443
					c0.4595718-0.040741,0.7690582-0.4357376,0.752243-0.853569c-2.3159409-1.4237862-13.1187897-8.385746-15.5791664-15.8079891
					C51.0929375,24.5815449,50.8268394,24.8501797,50.7856979,25.2087917z"></path>
      <path fill="#fff" d="M53.1351662,31.9188042c0.2177277,1.7651024,1.4389572,4.2220993,3.3929977,5.9011383
				c0.6042709,0.5491333,1.3194885,0.9970093,2.0703468,1.3587341c-0.5826416-0.5862427-1.1684113-1.1188622-1.6798058-1.7117081
				C55.3414688,35.7003899,54.2693253,34.0089035,53.1351662,31.9188042z"></path>
      <path fill="#5ec363" d="M51.2843323,23.4652081L50.1047325,24.46661
				c2.8137779,4.1698608,8.4011612,11.6060944,13.6921234,13.667984
				C63.7968559,38.134594,54.8760834,30.9955082,51.2843323,23.4652081z"></path>
      <g>
        <path fill="#78e75a" d="M41.4149399,3.3209829c1.1015205,1.4346747,3.155262,4.0599771,4.3515739,5.2795696
				c3.1094971,3.169961,4.865696,7.1543894,3.8058701,14.6859655c-0.0701027,0.4982319-0.571106,0.8164749-1.0529289,0.669426
				c-3.612587-1.1023445-16.3420982-6.1300316-8.4819183-20.5251923C40.3229256,2.9080763,41.052227,2.8485329,41.4149399,3.3209829
				z"></path>
        <path fill="#fff" d="M48.5291634,19.4450989c0.4501038-2.3699265-0.4862328-5.8425064-2.8707733-8.0123625
				C46.1849327,12.4323463,47.6925507,15.1532021,48.5291634,19.4450989z"></path>
        <path fill="#72d561" d="M48.5194778,23.9559498c-3.6126175-1.1023674-16.3421173-6.1300354-8.4819221-20.5251827
					c0.2208519-0.4045112,0.7070694-0.530205,1.0839958-0.3480186c0.3828278,2.6887734,2.462925,15.3587008,8.2957077,20.574131
					C49.2180405,23.9250259,48.8651657,24.06143,48.5194778,23.9559498z"></path>
        <path fill="#5ec363" d="M50.3194275,24.1954002l-1.3903198,0.6802883c-2.7054749-4.240736-7.3028946-12.324789-7.0840645-17.992157
				C41.8450432,6.8835325,44.8390388,17.9009666,50.3194275,24.1954002z"></path>
      </g>
      <g>
        <path fill="#78e75a" d="M34.6502075,37.8162804c0.9157104-1.5595169,2.5770111-4.448494,3.2574921-6.0146389
				c1.7686806-4.0707684,4.8028221-7.1967049,12.188446-9.0546227c0.488575-0.1229134,0.9725685,0.2205696,1.0177345,0.7216587
				c0.3388062,3.7569389,0.4720268,17.4259949-15.842804,15.5802917
				C34.6787033,38.9819603,34.3486443,38.3298187,34.6502075,37.8162804z"></path>
        <path fill="#72d561" d="M51.1138763,23.4686527c0.3387985,3.7569771,0.4720306,17.426012-15.8427925,15.5802937
					c-0.4584465-0.0518417-0.7582626-0.4542122-0.7313042-0.8715134
					c2.3498306-1.3673477,13.3185387-8.0659542,15.9583702-15.4264984
					C50.8219528,22.8341579,51.0814514,23.1091518,51.1138763,23.4686527z"></path>
        <path fill="#5ec363" d="M63.971138,20.3732891c0.1648178-1.391058-0.7169113-3.2989292-2.1402512-3.5561714
				c0,0-5.2391968-1.2467585-11.734726,5.9298611l0.2232513,1.4484253c0,0,7.0152283-4.1035004,11.7804565-2.6371937
				C62.9518661,21.8203564,63.8663979,21.2574024,63.971138,20.3732891z"></path>
        <path fill="#50b069" d="M63.971138,20.3732891c0.0508041-0.4287319,0.0015144-0.9064522-0.1317444-1.369976
					c-0.1770477,0.7015686-0.9206848,1.1914902-1.7008781,1.0711708c-3.8684273-0.5965042-8.647049,2.1853161-10.6507301,3.5038166
					c2.1952858-1.0851173,7.0368881-3.1201935,10.6120834-2.0200901
					C62.9518661,21.8203564,63.8663979,21.2574024,63.971138,20.3732891z"></path>
        <path fill="#5ec363" d="M51.1321411,23.6856689c-0.0060234-0.0752487-0.0120468-0.1482697-0.0182533-0.2169895
					c-0.0451813-0.5010986-0.5291481-0.8445415-1.0177345-0.7216587c-0.0005417,0.0001106-0.0010262,0.0002842-0.0015793,0.0004311
					C46.0545578,29.7830906,37.7927513,36.075901,37.7927513,36.075901
					C42.7443771,34.2830582,48.0613823,27.8773174,51.1321411,23.6856689z"></path>
      </g>
    </g>
  </g>
</svg>
